<svg width="1148" height="1024" viewBox="0 0 1148 1024" fill="none" xmlns="http://www.w3.org/2000/svg" style="">
<path d="M131.811 229.455C104.683 -32.4159 364.822 -15.0145 536.809 91.5058C638.032 148.428 729.041 39.4085 854.421 110.015C979.802 180.621 794.341 305.765 985.488 417.976C1176.64 530.187 1018.46 862.417 839.302 836.526C660.139 810.635 699.348 877.546 498.359 981.903C297.369 1086.26 27.9307 849.341 135.713 664.891C243.495 480.44 161.177 512.934 131.811 229.455Z" stroke="#4E3F78" stroke-width="2" class="KuWdGPde_0"></path>
<path d="M163.963 251.799C138.941 11.4457 379.41 24.3376 538.241 123.124C632.531 176.656 717.965 77.0524 833.527 142.131C951.666 208.663 781.295 323.007 956.724 427.253C1132.51 531.984 988.853 840.272 820.444 815.808C653.017 791.508 689.653 854.775 503.362 950.054C317.072 1045.33 68.5419 827.636 167.261 655.564C265.521 486.233 191.262 513.319 163.963 251.799Z" stroke="#4E3F78" stroke-width="2" class="KuWdGPde_1"></path>
<path d="M196.118 274.143C173.2 55.3082 394 63.6905 539.674 154.742C627.033 204.885 706.892 114.697 812.634 174.248C923.532 236.707 768.251 340.25 927.963 436.531C1088.39 533.782 959.245 818.129 801.588 795.09C645.897 772.381 679.96 832.005 508.368 918.205C336.777 1004.41 109.155 805.931 198.812 646.237C287.55 492.026 221.349 513.705 196.118 274.143Z" stroke="#4E3F78" stroke-width="2" class="KuWdGPde_2"></path>
<path d="M228.274 296.489C207.461 99.1718 408.591 103.045 541.109 186.362C621.535 233.115 695.82 152.343 791.743 206.366C895.399 264.751 755.208 357.494 899.202 445.81C1044.28 535.581 929.637 795.987 782.733 774.374C638.778 753.256 670.267 809.236 513.375 886.357C356.483 963.479 149.769 784.228 230.364 636.912C309.579 497.82 251.437 514.091 228.274 296.489Z" stroke="#4E3F78" stroke-width="2" class="KuWdGPde_3"></path>
<path d="M260.427 318.836C241.719 143.036 423.179 142.4 542.541 217.983C616.034 261.346 684.745 189.99 770.848 238.485C867.264 292.797 742.162 374.738 870.439 455.09C1000.15 537.381 900.027 773.845 763.876 753.659C631.656 734.131 660.572 786.468 518.379 854.511C376.186 922.553 190.381 762.525 261.912 627.587C331.606 503.615 281.522 514.479 260.427 318.836Z" stroke="#4E3F78" stroke-width="2" class="KuWdGPde_4"></path>
<path d="M292.441 342.018C275.838 187.737 437.629 182.59 543.834 250.439C610.395 290.413 673.531 228.472 749.815 271.439C838.989 321.678 728.978 392.819 841.536 465.205C955.894 540.016 870.278 752.539 744.88 733.779C624.395 715.843 650.739 764.535 523.245 823.5C395.751 882.464 230.854 741.659 293.322 619.099C353.494 510.246 311.468 515.702 292.441 342.018Z" stroke="#4E3F78" stroke-width="2" class="KuWdGPde_5"></path>
<path d="M324.292 366.19C309.793 233.426 451.914 223.77 544.963 283.885C604.592 320.469 662.153 267.944 728.618 305.383C810.551 351.548 715.63 411.888 812.47 476.31C911.47 543.641 840.364 732.222 725.719 714.889C616.97 698.543 640.741 743.592 527.946 793.477C415.151 843.363 271.162 721.781 324.568 611.599C375.218 517.866 341.251 517.914 324.292 366.19Z" stroke="#4E3F78" stroke-width="2" class="KuWdGPde_6"></path>
<path d="M356.133 390.416C343.739 279.17 466.19 265.005 546.082 317.385C598.779 350.58 650.766 307.47 707.412 339.381C782.103 381.473 702.272 431.013 783.395 487.469C867.036 547.32 810.442 711.96 706.549 696.053C609.536 681.298 630.734 722.703 532.638 763.51C434.542 804.317 311.462 701.958 355.805 604.154C396.932 525.541 371.024 520.182 356.133 390.416Z" stroke="#4E3F78" stroke-width="2" class="KuWdGPde_7"></path>
<path d="M387.962 414.722C377.673 324.993 480.455 306.319 547.19 350.965C592.955 380.77 639.367 347.076 686.194 373.459C753.644 411.478 688.902 450.216 754.307 498.708C822.591 551.079 780.507 691.778 687.368 677.297C602.09 664.133 620.715 701.894 537.318 733.622C453.921 765.351 351.749 682.214 387.03 596.789C418.635 533.295 400.785 522.528 387.962 414.722Z" stroke="#4E3F78" stroke-width="2" class="KuWdGPde_8"></path>
<path d="M483.317 488.623C479.343 463.448 523.116 431.245 550.382 452.688C575.349 472.324 605.038 466.877 622.407 476.677C668.134 502.475 648.662 508.811 666.913 533.408C689.123 563.34 690.573 632.214 629.692 622.012C579.62 613.621 590.527 640.451 551.227 644.943C511.927 649.435 472.48 623.967 480.573 575.676C483.612 557.542 489.937 530.552 483.317 488.623Z" stroke="#4E3F78" stroke-width="2" class="KuWdGPde_9"></path>
<path d="M507.182 507.246C503.861 490.408 536.131 469.55 556.809 484.225C575.745 497.663 597.86 494.446 610.979 501.221C645.517 519.056 631.051 523.009 645.036 539.66C662.054 559.923 664.097 605.858 618.449 598.208C580.906 591.917 589.432 609.954 560.12 612.402C530.808 614.849 500.968 597.321 506.344 565.241C508.363 553.194 512.715 535.29 507.182 507.246Z" stroke="#4E3F78" stroke-width="2" class="KuWdGPde_10"></path>
<path d="M539.984 526.696C537.976 516.714 557.282 504.39 569.685 513.109C581.042 521.093 594.285 519.211 602.151 523.24C622.858 533.847 614.198 536.174 622.593 546.057C632.809 558.083 634.083 585.305 606.732 580.722C584.237 576.952 589.364 587.65 571.809 589.068C554.254 590.486 536.361 580.066 539.546 561.062C540.742 553.926 543.329 543.321 539.984 526.696Z" stroke="#4E3F78" stroke-width="2" class="KuWdGPde_11"></path>
<path d="M559.546 536.949C558.462 531.405 569.042 524.528 575.813 529.354C582.014 533.774 589.261 532.708 593.557 534.936C604.869 540.799 600.128 542.104 604.706 547.583C610.276 554.251 610.933 569.375 595.978 566.869C583.678 564.808 586.467 570.745 576.862 571.559C567.257 572.373 557.485 566.61 559.255 556.045C559.92 552.078 561.351 546.181 559.546 536.949Z" stroke="#4E3F78" stroke-width="2" class="KuWdGPde_12"></path>
<path d="M419.774 439.144C411.589 370.934 494.702 347.749 548.281 384.661C587.113 411.076 627.951 386.799 664.958 407.654C725.167 441.599 675.516 469.537 725.203 510.064C778.128 554.955 750.556 671.712 668.169 658.657C594.627 647.084 610.679 681.202 541.981 703.851C473.283 726.501 392.019 662.587 418.237 589.54C440.321 541.166 430.529 524.992 419.774 439.144Z" stroke="#4E3F78" stroke-width="2" class="KuWdGPde_13"></path>
<path d="M451.561 463.745C445.482 417.052 508.925 389.358 549.347 418.536C581.247 441.561 616.51 426.7 643.698 442.027C696.666 471.898 662.104 489.035 696.074 521.598C733.641 559.009 720.58 651.824 648.946 640.196C587.139 630.214 600.619 660.688 546.62 674.259C492.621 687.83 432.265 643.139 449.421 582.47C461.982 549.215 460.249 527.633 451.561 463.745Z" stroke="#4E3F78" stroke-width="2" class="KuWdGPde_14"></path>
<style>.KuWdGPde_0{stroke-dasharray:3293 3295;stroke-dashoffset:3294;animation:KuWdGPde_draw_0 6500ms ease-in 0ms infinite,KuWdGPde_fade 6500ms linear 0ms infinite;}.KuWdGPde_1{stroke-dasharray:3052 3054;stroke-dashoffset:3053;animation:KuWdGPde_draw_1 6500ms ease-in 0ms infinite,KuWdGPde_fade 6500ms linear 0ms infinite;}.KuWdGPde_2{stroke-dasharray:2811 2813;stroke-dashoffset:2812;animation:KuWdGPde_draw_2 6500ms ease-in 0ms infinite,KuWdGPde_fade 6500ms linear 0ms infinite;}.KuWdGPde_3{stroke-dasharray:2570 2572;stroke-dashoffset:2571;animation:KuWdGPde_draw_3 6500ms ease-in 0ms infinite,KuWdGPde_fade 6500ms linear 0ms infinite;}.KuWdGPde_4{stroke-dasharray:2329 2331;stroke-dashoffset:2330;animation:KuWdGPde_draw_4 6500ms ease-in 0ms infinite,KuWdGPde_fade 6500ms linear 0ms infinite;}.KuWdGPde_5{stroke-dasharray:2089 2091;stroke-dashoffset:2090;animation:KuWdGPde_draw_5 6500ms ease-in 0ms infinite,KuWdGPde_fade 6500ms linear 0ms infinite;}.KuWdGPde_6{stroke-dasharray:1849 1851;stroke-dashoffset:1850;animation:KuWdGPde_draw_6 6500ms ease-in 0ms infinite,KuWdGPde_fade 6500ms linear 0ms infinite;}.KuWdGPde_7{stroke-dasharray:1609 1611;stroke-dashoffset:1610;animation:KuWdGPde_draw_7 6500ms ease-in 0ms infinite,KuWdGPde_fade 6500ms linear 0ms infinite;}.KuWdGPde_8{stroke-dasharray:1370 1372;stroke-dashoffset:1371;animation:KuWdGPde_draw_8 6500ms ease-in 0ms infinite,KuWdGPde_fade 6500ms linear 0ms infinite;}.KuWdGPde_9{stroke-dasharray:660 662;stroke-dashoffset:661;animation:KuWdGPde_draw_9 6500ms ease-in 0ms infinite,KuWdGPde_fade 6500ms linear 0ms infinite;}.KuWdGPde_10{stroke-dasharray:469 471;stroke-dashoffset:470;animation:KuWdGPde_draw_10 6500ms ease-in 0ms infinite,KuWdGPde_fade 6500ms linear 0ms infinite;}.KuWdGPde_11{stroke-dasharray:280 282;stroke-dashoffset:281;animation:KuWdGPde_draw_11 6500ms ease-in 0ms infinite,KuWdGPde_fade 6500ms linear 0ms infinite;}.KuWdGPde_12{stroke-dasharray:154 156;stroke-dashoffset:155;animation:KuWdGPde_draw_12 6500ms ease-in 0ms infinite,KuWdGPde_fade 6500ms linear 0ms infinite;}.KuWdGPde_13{stroke-dasharray:1131 1133;stroke-dashoffset:1132;animation:KuWdGPde_draw_13 6500ms ease-in 0ms infinite,KuWdGPde_fade 6500ms linear 0ms infinite;}.KuWdGPde_14{stroke-dasharray:894 896;stroke-dashoffset:895;animation:KuWdGPde_draw_14 6500ms ease-in 0ms infinite,KuWdGPde_fade 6500ms linear 0ms infinite;}@keyframes KuWdGPde_draw{100%{stroke-dashoffset:0;}}@keyframes KuWdGPde_fade{0%{stroke-opacity:1;}93.84615384615384%{stroke-opacity:1;}100%{stroke-opacity:0;}}@keyframes KuWdGPde_draw_0{12.307692307692308%{stroke-dashoffset: 3294}51.28205128205128%{ stroke-dashoffset: 0;}100%{ stroke-dashoffset: 0;}}@keyframes KuWdGPde_draw_1{13.6996336996337%{stroke-dashoffset: 3053}52.673992673992664%{ stroke-dashoffset: 0;}100%{ stroke-dashoffset: 0;}}@keyframes KuWdGPde_draw_2{15.091575091575091%{stroke-dashoffset: 2812}54.065934065934066%{ stroke-dashoffset: 0;}100%{ stroke-dashoffset: 0;}}@keyframes KuWdGPde_draw_3{16.483516483516485%{stroke-dashoffset: 2571}55.45787545787546%{ stroke-dashoffset: 0;}100%{ stroke-dashoffset: 0;}}@keyframes KuWdGPde_draw_4{17.875457875457876%{stroke-dashoffset: 2330}56.84981684981685%{ stroke-dashoffset: 0;}100%{ stroke-dashoffset: 0;}}@keyframes KuWdGPde_draw_5{19.267399267399266%{stroke-dashoffset: 2090}58.241758241758234%{ stroke-dashoffset: 0;}100%{ stroke-dashoffset: 0;}}@keyframes KuWdGPde_draw_6{20.65934065934066%{stroke-dashoffset: 1850}59.633699633699635%{ stroke-dashoffset: 0;}100%{ stroke-dashoffset: 0;}}@keyframes KuWdGPde_draw_7{22.051282051282055%{stroke-dashoffset: 1610}61.02564102564102%{ stroke-dashoffset: 0;}100%{ stroke-dashoffset: 0;}}@keyframes KuWdGPde_draw_8{23.44322344322344%{stroke-dashoffset: 1371}62.417582417582416%{ stroke-dashoffset: 0;}100%{ stroke-dashoffset: 0;}}@keyframes KuWdGPde_draw_9{24.835164835164832%{stroke-dashoffset: 661}63.80952380952382%{ stroke-dashoffset: 0;}100%{ stroke-dashoffset: 0;}}@keyframes KuWdGPde_draw_10{26.22710622710623%{stroke-dashoffset: 470}65.2014652014652%{ stroke-dashoffset: 0;}100%{ stroke-dashoffset: 0;}}@keyframes KuWdGPde_draw_11{27.61904761904762%{stroke-dashoffset: 281}66.59340659340658%{ stroke-dashoffset: 0;}100%{ stroke-dashoffset: 0;}}@keyframes KuWdGPde_draw_12{29.010989010989015%{stroke-dashoffset: 155}67.98534798534797%{ stroke-dashoffset: 0;}100%{ stroke-dashoffset: 0;}}@keyframes KuWdGPde_draw_13{30.4029304029304%{stroke-dashoffset: 1132}69.37728937728937%{ stroke-dashoffset: 0;}100%{ stroke-dashoffset: 0;}}@keyframes KuWdGPde_draw_14{31.7948717948718%{stroke-dashoffset: 895}70.76923076923077%{ stroke-dashoffset: 0;}100%{ stroke-dashoffset: 0;}}</style></svg>
