<svg width="32" height="32" viewBox="0 0 32 32" fill="none" xmlns="http://www.w3.org/2000/svg">
<g clip-path="url(#clip0_142_48)">
<path d="M30 19H26V15H24V24H8V8L17 7.9991V6H13V2H11V6H8C7.46973 6.00053 6.96133 6.21141 6.58637 6.58637C6.21141 6.96133 6.00053 7.46973 6 8V11H2V13H6V19H2V21H6V24C6.00061 24.5302 6.21152 25.0386 6.58646 25.4135C6.9614 25.7885 7.46975 25.9994 8 26H11V30H13V26H19V30H21V26H24C24.5302 25.9993 25.0385 25.7883 25.4134 25.4134C25.7883 25.0385 25.9993 24.5302 26 24V21H30V19Z" fill="black"/>
<path d="M26 2C24.9395 2.00111 23.9227 2.4229 23.1728 3.1728C22.4229 3.92271 22.0011 4.93948 22 6C22.0038 6.7118 22.1996 7.40939 22.5668 8.0192L19.5859 11H11V21H21V12.4141L23.9808 9.4333C24.5906 9.80045 25.2882 9.99623 26 10C27.0609 10 28.0783 9.57857 28.8284 8.82843C29.5786 8.07828 30 7.06087 30 6C30 4.93913 29.5786 3.92172 28.8284 3.17157C28.0783 2.42143 27.0609 2 26 2ZM19 19H13V13H19V19ZM26 8C25.6044 8 25.2178 7.8827 24.8889 7.66294C24.56 7.44318 24.3036 7.13082 24.1522 6.76537C24.0009 6.39991 23.9613 5.99778 24.0384 5.60982C24.1156 5.22186 24.3061 4.86549 24.5858 4.58579C24.8655 4.30608 25.2219 4.1156 25.6098 4.03843C25.9978 3.96126 26.3999 4.00087 26.7654 4.15224C27.1308 4.30362 27.4432 4.55996 27.6629 4.88886C27.8827 5.21776 28 5.60444 28 6C27.9994 6.53025 27.7885 7.0386 27.4135 7.41354C27.0386 7.78848 26.5302 7.99939 26 8Z" fill="black"/>
</g>
<defs>
<clipPath id="clip0_142_48">
<rect width="32" height="32" fill="white"/>
</clipPath>
</defs>
</svg>
