<svg width="27" height="40" viewBox="0 0 27 40" fill="none" xmlns="http://www.w3.org/2000/svg">
<path d="M22.5 28.6364C22.5 34.9123 17.4632 40 11.25 40C5.03684 40 0 34.9123 0 28.6364C0 22.3604 5.4 16.3636 11.25 7.27274C17.1 16.3636 22.5 22.3604 22.5 28.6364Z" fill="#13B3F7"/>
<path d="M27 9.49495C27 12.2843 24.7838 14.5455 22.05 14.5455C19.3162 14.5455 17.1 12.2843 17.1 9.49495C17.1 6.70564 19.476 4.04041 22.05 0C24.624 4.04041 27 6.70563 27 9.49495Z" fill="#13B3F7"/>
<path d="M6.28258 22.7273C4.75355 25.1515 2.79639 30.7273 7.2 33.6364" stroke="white" stroke-linecap="round"/>
</svg>
