<svg width="32" height="32" viewBox="0 0 32 32" fill="none" xmlns="http://www.w3.org/2000/svg">
<g clip-path="url(#clip0_141_165)">
<path d="M31 26.72C30.102 26.72 29.355 26.064 28.862 25.63C28.323 25.156 27.826 24.72 27.25 24.72C26.648 24.72 26.101 25.201 25.617 25.626C25.054 26.12 24.37 26.72 23.5 26.72C22.627 26.72 21.942 26.117 21.393 25.634C20.897 25.199 20.35 24.72 19.75 24.72C19.148 24.72 18.601 25.201 18.117 25.626C17.554 26.121 16.871 26.72 16 26.72C15.128 26.72 14.444 26.119 13.895 25.636C13.398 25.2 12.851 24.72 12.25 24.72C11.649 24.72 11.103 25.2 10.62 25.624C10.056 26.12 9.372 26.72 8.5 26.72C7.628 26.72 6.944 26.119 6.395 25.636C5.897 25.201 5.351 24.72 4.75 24.72C4.149 24.72 3.603 25.2 3.12 25.624C2.556 26.12 1.872 26.72 1 26.72V26C1.601 26 2.147 25.52 2.63 25.096C3.194 24.601 3.878 24 4.75 24C5.622 24 6.306 24.601 6.855 25.084C7.353 25.519 7.899 26 8.5 26C9.101 26 9.647 25.52 10.13 25.096C10.694 24.601 11.378 24 12.25 24C13.122 24 13.806 24.601 14.355 25.084C14.852 25.52 15.399 26 16 26C16.6 26 17.146 25.521 17.628 25.098C18.192 24.603 18.877 24 19.75 24C20.62 24 21.304 24.6 21.854 25.082C22.351 25.519 22.899 26 23.5 26C24.1 26 24.646 25.521 25.128 25.098C25.692 24.603 26.377 24 27.25 24C28.098 24 28.752 24.576 29.278 25.038C29.774 25.475 30.373 26 31 26V26.72ZM31 20.72C30.102 20.72 29.355 20.064 28.862 19.63C28.323 19.156 27.826 18.72 27.25 18.72C26.648 18.72 26.101 19.201 25.617 19.626C25.054 20.12 24.37 20.72 23.5 20.72C22.627 20.72 21.942 20.117 21.393 19.634C20.897 19.199 20.35 18.72 19.75 18.72C19.148 18.72 18.601 19.201 18.117 19.626C17.554 20.121 16.871 20.72 16 20.72C15.128 20.72 14.444 20.119 13.895 19.636C13.398 19.2 12.851 18.72 12.25 18.72C11.649 18.72 11.103 19.2 10.62 19.624C10.056 20.12 9.372 20.72 8.5 20.72C7.628 20.72 6.944 20.119 6.395 19.636C5.897 19.201 5.351 18.72 4.75 18.72C4.149 18.72 3.603 19.2 3.12 19.624C2.556 20.12 1.872 20.72 1 20.72V20C1.601 20 2.147 19.52 2.63 19.096C3.194 18.601 3.878 18 4.75 18C5.622 18 6.306 18.601 6.855 19.084C7.353 19.519 7.899 20 8.5 20C9.101 20 9.647 19.52 10.13 19.096C10.694 18.601 11.378 18 12.25 18C13.122 18 13.806 18.601 14.355 19.084C14.852 19.52 15.399 20 16 20C16.6 20 17.146 19.521 17.628 19.098C18.192 18.603 18.877 18 19.75 18C20.62 18 21.304 18.6 21.854 19.082C22.351 19.519 22.899 20 23.5 20C24.1 20 24.646 19.521 25.128 19.098C25.692 18.603 26.377 18 27.25 18C28.098 18 28.752 18.576 29.278 19.038C29.774 19.475 30.373 20 31 20V20.72ZM31 14.72C30.102 14.72 29.355 14.064 28.862 13.631C28.323 13.157 27.826 12.72 27.25 12.72C26.648 12.72 26.101 13.201 25.617 13.626C25.054 14.12 24.37 14.72 23.5 14.72C22.627 14.72 21.942 14.118 21.393 13.635C20.897 13.2 20.35 12.72 19.75 12.72C19.148 12.72 18.601 13.201 18.117 13.626C17.554 14.12 16.871 14.72 16 14.72C15.128 14.72 14.444 14.119 13.895 13.637C13.398 13.2 12.851 12.72 12.25 12.72C11.649 12.72 11.103 13.2 10.62 13.624C10.056 14.119 9.372 14.72 8.5 14.72C7.628 14.72 6.944 14.119 6.395 13.637C5.897 13.2 5.351 12.72 4.75 12.72C4.149 12.72 3.603 13.2 3.12 13.624C2.556 14.119 1.872 14.72 1 14.72V14C1.601 14 2.147 13.52 2.63 13.096C3.194 12.601 3.878 12 4.75 12C5.622 12 6.306 12.601 6.855 13.083C7.353 13.52 7.899 14 8.5 14C9.101 14 9.647 13.52 10.13 13.096C10.694 12.601 11.378 12 12.25 12C13.122 12 13.806 12.601 14.355 13.083C14.853 13.52 15.399 14 16 14C16.6 14 17.146 13.521 17.628 13.097C18.192 12.601 18.877 12 19.75 12C20.62 12 21.304 12.6 21.854 13.081C22.351 13.519 22.899 14 23.5 14C24.1 14 24.646 13.521 25.128 13.097C25.692 12.601 26.377 12 27.25 12C28.098 12 28.752 12.576 29.278 13.038C29.774 13.474 30.373 14 31 14V14.72ZM31 8.72C30.102 8.72 29.355 8.064 28.862 7.631C28.323 7.157 27.826 6.72 27.25 6.72C26.648 6.72 26.101 7.201 25.617 7.626C25.054 8.12 24.37 8.72 23.5 8.72C22.627 8.72 21.942 8.118 21.393 7.635C20.896 7.199 20.35 6.72 19.75 6.72C19.148 6.72 18.601 7.201 18.117 7.626C17.554 8.12 16.871 8.72 16 8.72C15.128 8.72 14.444 8.119 13.895 7.637C13.397 7.2 12.851 6.72 12.25 6.72C11.649 6.72 11.103 7.2 10.62 7.624C10.056 8.119 9.372 8.72 8.5 8.72C7.628 8.72 6.944 8.119 6.395 7.637C5.897 7.2 5.351 6.72 4.75 6.72C4.149 6.72 3.603 7.2 3.12 7.624C2.556 8.119 1.872 8.72 1 8.72V8C1.601 8 2.147 7.52 2.63 7.096C3.194 6.601 3.878 6 4.75 6C5.622 6 6.306 6.601 6.855 7.083C7.353 7.52 7.899 8 8.5 8C9.101 8 9.647 7.52 10.13 7.096C10.694 6.601 11.378 6 12.25 6C13.122 6 13.806 6.601 14.355 7.083C14.853 7.52 15.399 8 16 8C16.6 8 17.146 7.521 17.628 7.097C18.192 6.601 18.877 6 19.75 6C20.62 6 21.304 6.6 21.854 7.081C22.351 7.519 22.898 8 23.5 8C24.1 8 24.646 7.521 25.128 7.097C25.692 6.601 26.377 6 27.25 6C28.098 6 28.752 6.576 29.278 7.038C29.774 7.474 30.373 8 31 8V8.72Z" fill="black"/>
</g>
<defs>
<clipPath id="clip0_141_165">
<rect width="32" height="32" fill="white"/>
</clipPath>
</defs>
</svg>
