<svg width="32" height="32" viewBox="0 0 32 32" fill="none" xmlns="http://www.w3.org/2000/svg">
<g clip-path="url(#clip0_141_178)">
<g clip-path="url(#clip1_141_178)">
<path d="M30 13H26V15H30V13Z" fill="black"/>
<path d="M25.8284 4.75773L23.0001 7.58608L24.4141 9.00015L27.2425 6.1718L25.8284 4.75773Z" fill="black"/>
<path d="M24.4139 19.0001L22.9998 20.4142L25.8282 23.2426L27.2423 21.8285L24.4139 19.0001Z" fill="black"/>
<path d="M19 2H17V6H19V2Z" fill="black"/>
<path d="M18 8C17.6647 8.00218 17.3303 8.03228 17 8.09V10.1418C17.3259 10.052 17.662 10.0044 18 10C19.0609 10 20.0783 10.4214 20.8284 11.1716C21.5786 11.9217 22 12.9391 22 14C22 15.0609 21.5786 16.0783 20.8284 16.8284C20.0783 17.5786 19.0609 18 18 18V20C19.5913 20 21.1174 19.3679 22.2426 18.2426C23.3679 17.1174 24 15.5913 24 14C24 12.4087 23.3679 10.8826 22.2426 9.75736C21.1174 8.63214 19.5913 8 18 8Z" fill="black"/>
<path d="M10 20.1839V7H8V20.1839C7.33278 20.4198 6.77044 20.884 6.41237 21.4944C6.05429 22.1048 5.92353 22.8221 6.0432 23.5196C6.16287 24.2171 6.52527 24.8499 7.06634 25.306C7.60741 25.7621 8.29231 26.0123 9 26.0123C9.70769 26.0123 10.3926 25.7621 10.9337 25.306C11.4747 24.8499 11.8371 24.2171 11.9568 23.5196C12.0765 22.8221 11.9457 22.1048 11.5876 21.4944C11.2296 20.884 10.6672 20.4198 10 20.1839Z" fill="black"/>
<path d="M9 30C7.62216 30.0013 6.27462 29.5956 5.12655 28.8338C3.97848 28.072 3.08105 26.988 2.54691 25.7179C2.01277 24.4478 1.86573 23.0482 2.12425 21.6948C2.38277 20.3414 3.03533 19.0946 4 18.1108V7C4 5.67392 4.52678 4.40215 5.46447 3.46447C6.40215 2.52678 7.67392 2 9 2C10.3261 2 11.5979 2.52678 12.5355 3.46447C13.4732 4.40215 14 5.67392 14 7V18.1108C14.9647 19.0946 15.6172 20.3414 15.8757 21.6948C16.1343 23.0482 15.9872 24.4478 15.4531 25.7179C14.919 26.988 14.0215 28.072 12.8734 28.8338C11.7254 29.5956 10.3778 30.0013 9 30ZM9 4C8.20462 4.00087 7.44206 4.31722 6.87964 4.87964C6.31722 5.44206 6.00087 6.20462 6 7V18.9834L5.668 19.2817C4.91288 19.9566 4.38052 20.8449 4.14138 21.8291C3.90224 22.8132 3.96761 23.8468 4.32882 24.7929C4.69003 25.7391 5.33006 26.5533 6.16419 27.1277C6.99832 27.7021 7.98722 28.0097 9 28.0097C10.0128 28.0097 11.0017 27.7021 11.8358 27.1277C12.6699 26.5533 13.31 25.7391 13.6712 24.7929C14.0324 23.8468 14.0978 22.8132 13.8586 21.8291C13.6195 20.8449 13.0871 19.9566 12.332 19.2817L12 18.9834V7C11.9991 6.20462 11.6828 5.44206 11.1204 4.87964C10.5579 4.31722 9.79538 4.00087 9 4Z" fill="black"/>
</g>
</g>
<defs>
<clipPath id="clip0_141_178">
<rect width="32" height="32" fill="white"/>
</clipPath>
<clipPath id="clip1_141_178">
<rect width="32" height="32" fill="white"/>
</clipPath>
</defs>
</svg>
