<svg width="32" height="32" viewBox="0 0 32 32" fill="none" xmlns="http://www.w3.org/2000/svg">
<g clip-path="url(#clip0_141_274)">
<path d="M11.61 29.92C11.4054 29.8336 11.2353 29.6816 11.1267 29.4878C11.018 29.2941 10.977 29.0697 11.01 28.85L12.83 17H8.00001C7.84688 17.0041 7.69486 16.973 7.55566 16.9091C7.41647 16.8451 7.29382 16.75 7.19719 16.6312C7.10056 16.5123 7.03253 16.3729 6.99834 16.2236C6.96415 16.0742 6.96472 15.9191 7.00001 15.77L10 2.77C10.0528 2.54627 10.1811 2.34756 10.3632 2.20731C10.5453 2.06707 10.7702 1.99386 11 2H21C21.1494 1.99949 21.297 2.03246 21.432 2.09649C21.567 2.16052 21.6859 2.25398 21.78 2.37C21.8755 2.48733 21.943 2.62478 21.9777 2.77202C22.0123 2.91925 22.0131 3.07242 21.98 3.22L20.25 11H25C25.1874 10.9996 25.3712 11.0519 25.5303 11.1509C25.6894 11.25 25.8175 11.3917 25.9 11.56C25.9717 11.7215 25.9992 11.8992 25.9799 12.0748C25.9606 12.2505 25.8951 12.4179 25.79 12.56L12.79 29.56C12.7021 29.6902 12.5848 29.7979 12.4476 29.8744C12.3103 29.9508 12.157 29.9939 12 30C11.8662 29.9975 11.734 29.9704 11.61 29.92ZM17.75 13L19.75 4H11.8L9.26001 15H15.17L13.58 25.28L23 13H17.75Z" fill="black"/>
</g>
<defs>
<clipPath id="clip0_141_274">
<rect width="32" height="32" fill="white"/>
</clipPath>
</defs>
</svg>
