<svg width="32" height="32" viewBox="0 0 32 32" fill="none" xmlns="http://www.w3.org/2000/svg">
<g clip-path="url(#clip0_141_268)">
<path d="M16 27C17.1046 27 18 26.1046 18 25C18 23.8954 17.1046 23 16 23C14.8954 23 14 23.8954 14 25C14 26.1046 14.8954 27 16 27Z" fill="black"/>
<path d="M10.47 19.2334L11.8836 20.6465C12.9918 19.5911 14.4629 19.0017 15.9932 19C17.5235 18.9983 18.996 19.5844 20.1065 20.6372L21.52 19.2236C20.0348 17.7952 18.0536 16.9981 15.993 17C13.9323 17.0019 11.9526 17.8025 10.47 19.2336V19.2334Z" fill="black"/>
<path d="M6.229 14.9927L7.6426 16.4062C9.87454 14.2242 12.8713 13.0017 15.9926 12.9999C19.1139 12.998 22.1121 14.2169 24.3467 16.3962L25.76 14.9829C23.1508 12.4282 19.644 10.9982 15.9923 11.0001C12.3407 11.002 8.83528 12.4355 6.2287 14.9929L6.229 14.9927Z" fill="black"/>
<path d="M30 10.7412C26.2689 7.06235 21.2397 4.99992 16 4.99992C10.7603 4.99992 5.73107 7.06235 2 10.7412V10.7637L3.4043 12.168C6.75857 8.85844 11.2807 7.00203 15.9928 7.00015C20.7049 6.99828 25.2285 8.8511 28.5854 12.158L30 10.7432V10.7412Z" fill="black"/>
</g>
<defs>
<clipPath id="clip0_141_268">
<rect width="32" height="32" fill="white"/>
</clipPath>
</defs>
</svg>
