<svg width="702" height="506" viewBox="0 0 702 506" fill="none" xmlns="http://www.w3.org/2000/svg">
<path d="M700.998 472.724C700.963 481.308 697.512 489.634 691.398 495.678C685.376 501.632 677.14 504.951 668.685 504.997C667.384 505.004 666.083 504.997 664.782 504.997C661.045 504.997 657.306 504.997 653.568 504.997C647.678 504.997 641.787 504.997 635.898 504.997C628.084 504.997 620.269 504.997 612.455 504.997C602.903 504.997 593.35 504.997 583.799 504.997C572.858 504.997 561.916 504.997 550.974 504.997C538.839 504.997 526.702 504.997 514.566 504.997C501.441 504.997 488.316 504.997 475.192 504.997C461.354 504.997 447.517 504.997 433.68 504.997C419.414 504.997 405.148 504.997 390.882 504.997C376.354 504.997 361.825 504.997 347.297 504.997C332.79 504.997 318.282 504.997 303.775 504.997C289.571 504.997 275.368 504.997 261.164 504.997C247.467 504.997 233.771 504.997 220.073 504.997C207.057 504.997 194.041 504.997 181.024 504.997C169.074 504.997 157.125 504.997 145.175 504.997C134.462 504.997 123.748 504.997 113.034 504.997C103.753 504.997 94.4719 504.997 85.1896 504.997C77.6857 504.997 70.1818 504.997 62.6779 504.997C57.1391 504.997 51.6003 504.997 46.0627 504.997C42.7201 504.997 39.3774 504.997 36.036 504.997C33.7358 504.997 31.4487 505.024 29.158 504.725C20.7182 503.625 12.9139 499.145 7.7222 492.407C3.34073 486.721 1.03809 479.717 1.01655 472.558C1.00937 470.127 1.01655 467.696 1.01655 465.265C1.01655 459.598 1.01655 453.93 1.01655 448.263C1.01655 439.839 1.01655 431.414 1.01655 422.989C1.01655 412.328 1.01655 401.667 1.01655 391.006C1.01655 378.653 1.01655 366.301 1.01655 353.948C1.01655 340.382 1.01655 326.816 1.01655 313.251C1.01655 298.898 1.01655 284.545 1.01655 270.192C1.01655 255.716 1.01655 241.24 1.01655 226.766C1.01655 212.596 1.01655 198.424 1.01655 184.254C1.01655 170.824 1.01655 157.394 1.01655 143.964C1.01655 131.928 1.01655 119.892 1.01655 107.856C1.01655 97.6436 1.01655 87.4311 1.01655 77.2187C1.01655 69.2988 1.01655 61.3789 1.01655 53.459C1.01655 48.4257 1.01655 43.3924 1.01655 38.3591C1.01655 36.3248 0.969872 34.2832 1.0333 32.2489C1.29779 23.7266 5.04377 15.4983 11.2839 9.68209C17.2523 4.11928 25.187 1.04505 33.3372 1.00322C34.7351 0.996048 36.1329 1.00322 37.5308 1.00322C41.3438 1.00322 45.1556 1.00322 48.9686 1.00322C54.9514 1.00322 60.9329 1.00322 66.9157 1.00322C74.799 1.00322 82.6823 1.00322 90.5656 1.00322C100.121 1.00322 109.676 1.00322 119.231 1.00322C130.28 1.00322 141.328 1.00322 152.377 1.00322C164.554 1.00322 176.731 1.00322 188.908 1.00322C202.027 1.00322 215.147 1.00322 228.267 1.00322C242.164 1.00322 256.061 1.00322 269.958 1.00322C284.237 1.00322 298.516 1.00322 312.795 1.00322C327.287 1.00322 341.779 1.00322 356.271 1.00322C370.813 1.00322 385.354 1.00322 399.897 1.00322C414.086 1.00322 428.274 1.00322 442.463 1.00322C456.135 1.00322 469.809 1.00322 483.481 1.00322C496.464 1.00322 509.445 1.00322 522.428 1.00322C534.335 1.00322 546.242 1.00322 558.148 1.00322C568.809 1.00322 579.47 1.00322 590.132 1.00322C599.328 1.00322 608.524 1.00322 617.721 1.00322C625.177 1.00322 632.632 1.00322 640.088 1.00322C645.546 1.00322 651.004 1.00322 656.462 1.00322C659.703 1.00322 662.944 1.00322 666.185 1.00322C668.727 1.00322 671.245 1.00199 673.77 1.406C682.216 2.75785 689.902 7.48876 694.906 14.4166C698.921 19.9758 700.981 26.6754 700.997 33.5111C701.003 36.0798 700.997 38.6496 700.997 41.2183C700.997 46.9998 700.997 52.7813 700.997 58.5629C700.997 67.0565 700.997 75.549 700.997 84.0426C700.997 94.806 700.997 105.569 700.997 116.333C700.997 128.742 700.997 141.15 700.997 153.56C700.997 167.162 700.997 180.764 700.997 194.366C700.997 208.736 700.997 223.107 700.997 237.476C700.997 251.95 700.997 266.424 700.997 280.896C700.997 295.044 700.997 309.193 700.997 323.341C700.997 336.695 700.997 350.049 700.997 363.402C700.997 375.412 700.997 387.422 700.997 399.433C700.997 409.565 700.997 419.697 700.997 429.83C700.997 437.631 700.997 445.434 700.997 453.235C700.997 458.167 700.997 463.099 700.997 468.031C700.998 469.595 700.998 471.16 700.998 472.724Z" stroke="white" stroke-width="1.5" stroke-miterlimit="10" stroke-linecap="round" stroke-linejoin="round"/>
<path d="M13.4849 265.997C10.7557 266.021 9.43535 269.513 11.5338 271.3C13.6202 273.075 16.8953 271.227 16.456 268.524C16.2214 267.077 14.9429 266.01 13.4849 265.997Z" stroke="white" stroke-width="1.5" stroke-miterlimit="10" stroke-linecap="round" stroke-linejoin="round"/>
<path d="M13.4996 247C10.8345 247.046 10.8324 251.002 13.4996 251C16.1648 250.996 16.1688 247.01 13.4996 247Z" stroke="white" stroke-width="1.5" stroke-miterlimit="10" stroke-linecap="round" stroke-linejoin="round"/>
<path d="M675.998 469.587C675.995 473.415 673.821 477.016 670.431 478.797C668.565 479.777 666.596 479.99 664.537 479.99C662.09 479.99 659.643 479.99 657.196 479.99C652.605 479.99 648.016 479.99 643.425 479.99C636.912 479.99 630.399 479.99 623.885 479.99C615.669 479.99 607.454 479.99 599.237 479.99C589.54 479.99 579.842 479.99 570.144 479.99C559.185 479.99 548.226 479.99 537.268 479.99C525.268 479.99 513.268 479.99 501.268 479.99C488.485 479.99 475.704 479.99 462.921 479.99C449.502 479.99 436.083 479.99 422.665 479.99C408.906 479.99 395.147 479.99 381.389 479.99C367.431 479.99 353.473 479.99 339.515 479.99C325.618 479.99 311.72 479.99 297.823 479.99C284.207 479.99 270.59 479.99 256.975 479.99C243.86 479.99 230.745 479.99 217.631 479.99C205.238 479.99 192.846 479.99 180.452 479.99C169.002 479.99 157.552 479.99 146.101 479.99C135.814 479.99 125.527 479.99 115.24 479.99C106.336 479.99 97.4325 479.99 88.5288 479.99C81.2301 479.99 73.9301 479.99 66.6314 479.99C61.1699 479.99 55.7072 479.99 50.2457 479.99C46.8096 479.99 43.3746 479.99 39.9384 479.99C38.7299 479.99 37.519 480.014 36.3106 479.989C32.4696 479.912 28.9064 477.746 27.1554 474.306C26.1278 472.287 26.0224 470.196 26.0224 467.998C26.0224 464.494 26.0224 460.989 26.0224 457.484C26.0224 451.095 26.0224 444.706 26.0224 438.317C26.0224 429.508 26.0224 420.7 26.0224 411.89C26.0224 401.128 26.0224 390.365 26.0224 379.602C26.0224 367.349 26.0224 355.097 26.0224 342.845C26.0224 329.568 26.0224 316.292 26.0224 303.014C26.0224 289.178 26.0224 275.342 26.0224 261.505C26.0224 247.614 26.0224 233.723 26.0224 219.832C26.0224 206.27 26.0224 192.709 26.0224 179.147C26.0224 166.455 26.0224 153.763 26.0224 141.069C26.0224 129.637 26.0224 118.205 26.0224 106.772C26.0224 97.1028 26.0224 87.4346 26.0224 77.7651C26.0224 70.3244 26.0224 62.8836 26.0224 55.4429C26.0224 50.6956 26.0224 45.9472 26.0224 41.1999C26.0224 39.4765 25.9613 37.74 26.0308 36.0167C26.1865 32.1724 28.5148 28.6454 32.0001 27.0071C33.8134 26.1556 35.6902 26.019 37.6448 26.019C40.1815 26.019 42.7182 26.019 45.2549 26.019C49.926 26.019 54.5982 26.019 59.2692 26.019C65.8337 26.019 72.3983 26.019 78.9616 26.019C87.2102 26.019 95.4599 26.019 103.708 26.019C113.453 26.019 123.197 26.019 132.942 26.019C143.94 26.019 154.939 26.019 165.937 26.019C177.969 26.019 190 26.019 202.032 26.019C214.876 26.019 227.721 26.019 240.565 26.019C254.002 26.019 267.439 26.019 280.875 26.019C294.683 26.019 308.491 26.019 322.301 26.019C336.26 26.019 350.22 26.019 364.179 26.019C378.07 26.019 391.96 26.019 405.851 26.019C419.452 26.019 433.051 26.019 446.652 26.019C459.742 26.019 472.833 26.019 485.922 26.019C498.248 26.019 510.573 26.019 522.898 26.019C534.278 26.019 545.657 26.019 557.038 26.019C567.282 26.019 577.524 26.019 587.768 26.019C596.62 26.019 605.473 26.019 614.325 26.019C621.565 26.019 628.806 26.019 636.046 26.019C641.455 26.019 646.862 26.019 652.271 26.019C655.627 26.019 658.982 26.019 662.338 26.019C663.594 26.019 664.861 25.9687 666.117 26.0322C669.962 26.2262 673.469 28.6083 675.065 32.1149C675.968 34.1005 675.998 36.128 675.998 38.2478C675.998 41.8765 675.998 45.5053 675.998 49.1352C675.998 55.6298 675.998 62.1244 675.998 68.6202C675.998 77.4873 675.998 86.3543 675.998 95.2226C675.998 106.017 675.998 116.809 675.998 127.603C675.998 139.899 675.998 152.194 675.998 164.49C675.998 177.794 675.998 191.097 675.998 204.401C675.998 218.248 675.998 232.095 675.998 245.942C675.998 259.868 675.998 273.794 675.998 287.718C675.998 301.257 675.998 314.796 675.998 328.335C675.998 341.022 675.998 353.71 675.998 366.397C675.998 377.767 675.998 389.138 675.998 400.508C675.998 410.098 675.998 419.686 675.998 429.275C675.998 436.617 675.998 443.959 675.998 451.301C675.998 455.931 675.998 460.562 675.998 465.192C675.998 466.657 675.998 468.123 675.998 469.587Z" stroke="white" stroke-width="1.5" stroke-miterlimit="10" stroke-linecap="round" stroke-linejoin="round"/>
</svg>
