<svg width="221" height="443" viewBox="0 0 221 443" fill="none" xmlns="http://www.w3.org/2000/svg">
<path d="M2.00149 409.902C2.02709 414.57 3.02101 419.19 4.98902 423.427C7.10102 427.976 10.2831 431.999 14.2166 435.107C18.077 438.157 22.6428 440.294 27.4556 441.308C30.0214 441.849 32.607 442 35.2188 442C38.047 442 40.8752 442 43.704 442C48.7453 442 53.7866 442 58.8278 442C65.4115 442 71.9952 442 78.5789 442C86.0701 442 93.562 442 101.053 442C108.827 442 116.601 442 124.376 442C131.762 442 139.149 442 146.536 442C152.852 442 159.169 442 165.486 442C170.154 442 174.823 442 179.491 442C181.822 442 184.153 442 186.484 442C189.799 442 193.076 441.578 196.253 440.611C200.993 439.169 205.381 436.619 208.977 433.208C212.588 429.781 215.378 425.525 217.076 420.843C218.356 417.314 218.99 413.583 218.998 409.831C219 408.969 218.998 408.107 218.998 407.246C218.998 405.223 218.998 403.199 218.998 401.175C218.998 398.087 218.998 394.998 218.998 391.91C218.998 387.868 218.998 383.826 218.998 379.784C218.998 374.925 218.998 370.066 218.998 365.207C218.998 359.584 218.998 353.961 218.998 348.339C218.998 342.084 218.998 335.83 218.998 329.575C218.998 322.797 218.998 316.018 218.998 309.239C218.998 302.084 218.998 294.929 218.998 287.774C218.998 280.271 218.998 272.767 218.998 265.265C218.998 257.559 218.998 249.853 218.998 242.148C218.998 234.369 218.998 226.59 218.998 218.811C218.998 211.044 218.998 203.277 218.998 195.511C218.998 187.842 218.998 180.174 218.998 172.505C218.998 165.063 218.998 157.622 218.998 150.18C218.998 143.111 218.998 136.041 218.998 128.972C218.998 122.304 218.998 115.636 218.998 108.969C218.998 102.85 218.998 96.7307 218.998 90.6118C218.998 85.1494 218.998 79.6863 218.998 74.2239C218.998 69.5485 218.998 64.8732 218.998 60.1973C218.998 56.3648 218.998 52.5323 218.998 48.6992C218.998 45.8447 218.998 42.9901 218.998 40.1356C218.998 38.3699 218.998 36.6048 218.998 34.8391C218.998 34.0987 219.005 33.3577 218.994 32.6173C218.924 27.9388 217.82 23.2898 215.777 19.08C213.576 14.5424 210.298 10.546 206.277 7.50318C202.41 4.57694 197.889 2.5467 193.131 1.60715C190.639 1.11464 188.132 1 185.601 1C182.676 1 179.752 1 176.826 1C171.713 1 166.6 1 161.487 1C154.876 1 148.265 1 141.654 1C134.121 1 126.588 1 119.055 1C111.284 1 103.512 1 95.7412 1C88.3825 1 81.0237 1 73.665 1C67.4007 1 61.1357 1 54.8714 1C50.2806 1 45.6893 1 41.0985 1C38.8701 1 36.6416 1 34.4131 1C30.9488 1 27.5158 1.4861 24.2147 2.55502C19.5151 4.07674 15.1958 6.68724 11.6604 10.1393C8.07575 13.64 5.3359 17.9874 3.71989 22.7313C2.57109 26.1033 2.00725 29.6392 2.00085 33.1995C1.99893 34.1038 2.00085 35.0075 2.00085 35.9118C2.00085 37.9818 2.00085 40.0517 2.00085 42.1217C2.00085 45.2484 2.00085 48.3757 2.00085 51.5024C2.00085 55.5789 2.00085 59.6548 2.00085 63.7313C2.00085 68.6205 2.00085 73.5097 2.00085 78.399C2.00085 84.0478 2.00085 89.6966 2.00085 95.3461C2.00085 101.623 2.00085 107.899 2.00085 114.175C2.00085 120.953 2.00085 127.73 2.00085 134.507C2.00085 141.695 2.00085 148.884 2.00085 156.071C2.00085 163.585 2.00085 171.097 2.00085 178.61C2.00085 186.321 2.00085 194.032 2.00085 201.744C2.00085 209.503 2.00085 217.262 2.00085 225.021C2.00085 232.806 2.00085 240.592 2.00085 248.378C2.00085 256.039 2.00085 263.701 2.00085 271.364C2.00085 278.794 2.00085 286.225 2.00085 293.656C2.00085 300.71 2.00085 307.765 2.00085 314.82C2.00085 321.468 2.00085 328.118 2.00085 334.766C2.00085 340.862 2.00085 346.958 2.00085 353.054C2.00085 358.475 2.00085 363.897 2.00085 369.319C2.00085 373.977 2.00085 378.635 2.00085 383.293C2.00085 387.091 2.00085 390.888 2.00085 394.685C2.00085 397.5 2.00085 400.315 2.00085 403.13C2.00085 404.849 2.00085 406.567 2.00085 408.286C2.00149 408.824 2.00149 409.363 2.00149 409.902Z" stroke="white" stroke-width="1.5" stroke-miterlimit="10" stroke-linecap="round" stroke-linejoin="round"/>
<path d="M134 18.4989C133.999 17.0352 133.055 15.6946 131.677 15.2007C130.3 14.7074 128.718 15.1448 127.789 16.2757C126.86 17.4066 126.739 19.0434 127.491 20.2981C128.243 21.5535 129.742 22.2191 131.178 21.9349C132.608 21.6513 133.738 20.4712 133.959 19.0301C133.986 18.8543 134 18.6766 134 18.4989Z" stroke="white" stroke-width="1.5" stroke-miterlimit="10" stroke-linecap="round" stroke-linejoin="round"/>
<path d="M120.609 18.4856C120.609 17.373 119.938 16.3712 119.001 16.0868C118.623 15.9723 118.226 16.004 117.839 16.004C116.806 16.004 115.773 16.004 114.739 16.004C111.64 16.004 108.541 16.004 105.442 16.004C103.827 16.004 102 16.0041 100.513 16.0173C98.3625 16.2811 97.8797 19.7556 99.8656 20.7573C100.222 20.9369 100.586 20.9657 100.968 20.9672C101.805 20.9709 102.643 20.9672 103.48 20.9672C106.525 20.9672 109.571 20.9672 112.616 20.9672C114.551 20.9672 116.497 21.041 118.431 20.9672C119.358 20.9317 120.188 20.3156 120.494 19.285C120.571 19.0279 120.609 18.7567 120.609 18.4856Z" stroke="white" stroke-width="1.5" stroke-miterlimit="10" stroke-linecap="round" stroke-linejoin="round"/>
<path d="M58.5162 13.0113C52.9232 13.0113 47.3302 13.0113 41.7371 13.0113C39.2505 13.0113 36.7638 13.01 34.2772 13.0113C32.548 13.012 30.8375 13.1833 29.1571 13.5989C25.1439 14.5911 21.4844 16.848 18.7965 19.9814C16.1086 23.1154 14.4397 27.071 14.0783 31.18C13.9872 32.2106 14.0007 33.2419 14.0007 34.275C14.0007 35.8619 14.0007 37.448 14.0007 39.0349C14.0007 41.6721 14.0007 44.31 14.0007 46.9473C14.0007 50.5468 14.0007 54.1463 14.0007 57.7451C14.0007 62.1987 14.0007 66.653 14.0007 71.1066C14.0007 76.2986 14.0007 81.4901 14.0007 86.6821C14.0007 92.5224 14.0007 98.3634 14.0007 104.204C14.0007 110.611 14.0007 117.019 14.0007 123.426C14.0007 130.284 14.0007 137.141 14.0007 143.999C14.0007 151.185 14.0007 158.37 14.0007 165.556C14.0007 172.989 14.0007 180.422 14.0007 187.854C14.0007 195.475 14.0007 203.096 14.0007 210.717C14.0007 218.341 14.0007 225.966 14.0007 233.59C14.0007 241.159 14.0007 248.728 14.0007 256.298C14.0007 263.711 14.0007 271.124 14.0007 278.538C14.0007 285.734 14.0007 292.93 14.0007 300.127C14.0007 306.925 14.0007 313.724 14.0007 320.522C14.0007 326.863 14.0007 333.204 14.0007 339.546C14.0007 345.329 14.0007 351.112 14.0007 356.895C14.0007 362.047 14.0007 367.198 14.0007 372.35C14.0007 376.712 14.0007 381.074 14.0007 385.435C14.0007 388.938 14.0007 392.44 14.0007 395.941C14.0007 398.489 14.0007 401.037 14.0007 403.585C14.0007 405.066 14.0007 406.547 14.0007 408.028C14.0007 409.372 14.0225 410.706 14.2237 412.041C14.8358 416.099 16.7226 419.923 19.5732 422.882C22.4367 425.855 26.2167 427.896 30.2793 428.656C32.2244 429.019 34.1689 429 36.1345 429C39.344 429 42.5536 429 45.7632 429C50.9871 429 56.2116 429 61.4355 429C68.0841 429 74.7327 429 81.3813 429C88.8265 429 96.2723 429 103.718 429C111.324 429 118.93 429 126.536 429C133.713 429 140.89 429 148.066 429C154.234 429 160.401 429 166.568 429C171.044 429 175.521 429 179.997 429C182.21 429 184.422 429 186.635 429C189.674 429 192.646 428.434 195.414 427.158C199.181 425.423 202.35 422.506 204.398 418.908C206.112 415.898 206.987 412.483 206.999 409.026C207.001 408.226 206.999 407.427 206.999 406.627C206.999 404.707 206.999 402.786 206.999 400.866C206.999 397.907 206.999 394.947 206.999 391.988C206.999 388.123 206.999 384.258 206.999 380.393C206.999 375.71 206.999 371.027 206.999 366.343C206.999 360.925 206.999 355.507 206.999 350.09C206.999 344.051 206.999 338.012 206.999 331.973C206.999 325.433 206.999 318.893 206.999 312.353C206.999 305.397 206.999 298.441 206.999 291.485C206.999 284.192 206.999 276.899 206.999 269.605C206.999 262.096 206.999 254.586 206.999 247.076C206.999 239.473 206.999 231.869 206.999 224.265C206.999 216.648 206.999 209.029 206.999 201.412C206.999 193.838 206.999 186.265 206.999 178.691C206.999 171.347 206.999 164.003 206.999 156.659C206.999 149.602 206.999 142.545 206.999 135.489C206.999 128.82 206.999 122.152 206.999 115.483C206.999 109.27 206.999 103.056 206.999 96.8431C206.999 91.2553 206.999 85.6668 206.999 80.079C206.999 75.1804 206.999 70.2825 206.999 65.3839C206.999 61.2755 206.999 57.1671 206.999 53.0587C206.999 49.8256 206.999 46.5925 206.999 43.3594C206.999 41.1383 206.999 38.9172 206.999 36.6962C206.999 35.5671 206.999 34.4381 206.999 33.3083C206.999 30.9185 206.66 28.5651 205.861 26.305C204.48 22.4019 201.872 18.9789 198.472 16.6069C195.123 14.2708 191.107 13.0286 187.026 13.0107C181.394 12.9864 175.762 13.0107 170.13 13.0107C167.664 13.0107 165.197 13.0081 162.73 13.0107C161.801 13.012 160.929 13.2025 160.329 13.9703C159.349 15.2234 159.467 17.1344 159.121 18.6074C158.65 20.613 157.861 22.602 156.5 24.1786C154.247 26.7877 150.925 26.9999 147.647 26.9999C141.667 26.9999 135.688 26.9999 129.708 26.9999C123.638 26.9999 117.569 26.9999 111.5 26.9999C108.419 26.9999 105.337 26.9999 102.255 26.9999C95.0208 26.9999 87.7864 26.9999 80.5514 26.9999C78.0994 26.9999 75.648 26.9999 73.196 26.9999C71.8385 26.9999 70.638 27.3305 69.305 27.0237C65.2161 26.0819 62.8852 22.7005 61.9271 18.8101C61.3964 16.6511 61.629 13.0075 58.5162 13.0113Z" stroke="white" stroke-width="1.5" stroke-miterlimit="10" stroke-linecap="round" stroke-linejoin="round"/>
</svg>
