<svg width="10" height="10" viewBox="0 0 10 10" fill="none" xmlns="http://www.w3.org/2000/svg">
<path d="M4.693 0.105347C4.78077 0.0370697 4.8888 0 5 0C5.1112 0 5.21923 0.0370697 5.307 0.105347L9.421 3.30535C9.60142 3.4457 9.74738 3.62542 9.84773 3.8308C9.94808 4.03617 10.0002 4.26177 10 4.49035V9.00035C10 9.26556 9.89464 9.51992 9.70711 9.70745C9.51957 9.89499 9.26522 10.0003 9 10.0003H7C6.73478 10.0003 3.5 10 3 10C2.88283 9.88283 4 9.5 5 9C5.5 9 6 9.00035 6 9.00035V6.00035H4V9C4 9 4.5 9 5 9C5.91714 9.24156 7.11709 9.88326 7 10.0003C6.73828 10.0003 3.26522 10 3 10L1 10.0003C0.734784 10.0003 0.48043 9.89499 0.292893 9.70745C0.105357 9.51992 0 9.26556 0 9.00035V4.49035C0 4.02635 0.214 3.59035 0.58 3.30535L4.693 0.105347ZM5 1.13335L1.193 4.09435C1.13273 4.14123 1.08399 4.2013 1.05054 4.26995C1.01708 4.33859 0.999794 4.41398 1 4.49035V9.00035H3V6.00035C3 5.73513 3.10536 5.48078 3.29289 5.29324C3.48043 5.1057 3.73478 5.00035 4 5.00035H6C6.26522 5.00035 6.51957 5.1057 6.70711 5.29324C6.89464 5.48078 7 5.73513 7 6.00035V9.00035H9V4.49035C9.00021 4.41398 8.98292 4.33859 8.94946 4.26995C8.91601 4.2013 8.86727 4.14123 8.807 4.09435L5 1.13435V1.13335Z" fill="url(#paint0_linear_111_33)"/>
<defs>
<linearGradient id="paint0_linear_111_33" x1="1" y1="7.82311e-09" x2="10" y2="10.5" gradientUnits="userSpaceOnUse">
<stop stop-color="#6839EF"/>
<stop offset="1"/>
</linearGradient>
</defs>
</svg>
